<?xml version="1.0" encoding="UTF-8"?>
<!DOCTYPE svg
PUBLIC "-//W3C//DTD SVG 1.1//EN"
       "http://www.w3.org/Graphics/SVG/1.1/DTD/svg11.dtd">
<svg viewBox="32 23 1679 947" width="1647px" height="924px" xmlns="http://www.w3.org/2000/svg" version="1.1">
   <line x1="639" y1="455" x2="629" y2="455" style="stroke:#bbb;stroke-width:1;"/>
   <line x1="369" y1="107" x2="359" y2="107" style="stroke:#bbb;stroke-width:1;"/>
   <line x1="629" y1="455" x2="369" y2="107" style="stroke:#bbb;stroke-width:1;"/>
   <line x1="631.5" y1="455" x2="635.03553390593" y2="458.53553390593" style="stroke:#bbb;stroke-width:2;"/>
   <line x1="631.5" y1="455" x2="635.03553390593" y2="451.46446609407" style="stroke:#bbb;stroke-width:2;"/>
   <line x1="364" y1="107" x2="367.53553390593" y2="110.53553390593" style="stroke:#bbb;stroke-width:2;"/>
   <line x1="364" y1="107" x2="367.53553390593" y2="103.46446609407" style="stroke:#bbb;stroke-width:2;"/>
   <line x1="512" y1="68" x2="502" y2="68" style="stroke:#c00;stroke-width:1;"/>
   <line x1="369" y1="107" x2="359" y2="107" style="stroke:#c00;stroke-width:1;"/>
   <line x1="502" y1="68" x2="369" y2="107" style="stroke:#c00;stroke-width:1;"/>
   <line x1="504.5" y1="68" x2="508.03553390593" y2="71.535533905933" style="stroke:#c00;stroke-width:2;"/>
   <line x1="504.5" y1="68" x2="508.03553390593" y2="64.464466094067" style="stroke:#c00;stroke-width:2;"/>
   <line x1="364" y1="107" x2="367.53553390593" y2="110.53553390593" style="stroke:#c00;stroke-width:2;"/>
   <line x1="364" y1="107" x2="367.53553390593" y2="103.46446609407" style="stroke:#c00;stroke-width:2;"/>
   <line x1="787" y1="72" x2="777" y2="72" style="stroke:#b0b;stroke-width:1;"/>
   <line x1="369" y1="107" x2="359" y2="107" style="stroke:#b0b;stroke-width:1;"/>
   <line x1="777" y1="72" x2="369" y2="107" style="stroke:#b0b;stroke-width:1;"/>
   <line x1="779.5" y1="72" x2="783.03553390593" y2="75.535533905933" style="stroke:#b0b;stroke-width:2;"/>
   <line x1="779.5" y1="72" x2="783.03553390593" y2="68.464466094067" style="stroke:#b0b;stroke-width:2;"/>
   <line x1="364" y1="107" x2="367.53553390593" y2="110.53553390593" style="stroke:#b0b;stroke-width:2;"/>
   <line x1="364" y1="107" x2="367.53553390593" y2="103.46446609407" style="stroke:#b0b;stroke-width:2;"/>
   <line x1="111" y1="420" x2="121" y2="420" style="stroke:#0b0;stroke-width:1;"/>
   <line x1="271" y1="127" x2="281" y2="127" style="stroke:#0b0;stroke-width:1;"/>
   <line x1="121" y1="420" x2="271" y2="127" style="stroke:#0b0;stroke-width:1;"/>
   <line x1="118.5" y1="420" x2="114.96446609407" y2="423.53553390593" style="stroke:#0b0;stroke-width:2;"/>
   <line x1="118.5" y1="420" x2="114.96446609407" y2="416.46446609407" style="stroke:#0b0;stroke-width:2;"/>
   <line x1="276" y1="127" x2="272.46446609407" y2="130.53553390593" style="stroke:#0b0;stroke-width:2;"/>
   <line x1="276" y1="127" x2="272.46446609407" y2="123.46446609407" style="stroke:#0b0;stroke-width:2;"/>
   <line x1="137" y1="177" x2="147" y2="177" style="stroke:#b0b;stroke-width:1;"/>
   <line x1="271" y1="127" x2="281" y2="127" style="stroke:#b0b;stroke-width:1;"/>
   <line x1="147" y1="177" x2="271" y2="127" style="stroke:#b0b;stroke-width:1;"/>
   <line x1="144.5" y1="177" x2="140.96446609407" y2="180.53553390593" style="stroke:#b0b;stroke-width:2;"/>
   <line x1="144.5" y1="177" x2="140.96446609407" y2="173.46446609407" style="stroke:#b0b;stroke-width:2;"/>
   <line x1="276" y1="127" x2="272.46446609407" y2="130.53553390593" style="stroke:#b0b;stroke-width:2;"/>
   <line x1="276" y1="127" x2="272.46446609407" y2="123.46446609407" style="stroke:#b0b;stroke-width:2;"/>
   <line x1="1598" y1="922" x2="1588" y2="922" style="stroke:#b0b;stroke-width:1;"/>
   <line x1="369" y1="107" x2="359" y2="107" style="stroke:#b0b;stroke-width:1;"/>
   <line x1="1588" y1="922" x2="369" y2="107" style="stroke:#b0b;stroke-width:1;"/>
   <line x1="1590.5" y1="922" x2="1594.0355339059" y2="925.53553390593" style="stroke:#b0b;stroke-width:2;"/>
   <line x1="1590.5" y1="922" x2="1594.0355339059" y2="918.46446609407" style="stroke:#b0b;stroke-width:2;"/>
   <line x1="364" y1="107" x2="367.53553390593" y2="110.53553390593" style="stroke:#b0b;stroke-width:2;"/>
   <line x1="364" y1="107" x2="367.53553390593" y2="103.46446609407" style="stroke:#b0b;stroke-width:2;"/>
   <line x1="961" y1="648" x2="951" y2="648" style="stroke:#b0b;stroke-width:1;"/>
   <line x1="369" y1="107" x2="359" y2="107" style="stroke:#b0b;stroke-width:1;"/>
   <line x1="951" y1="648" x2="369" y2="107" style="stroke:#b0b;stroke-width:1;"/>
   <line x1="953.5" y1="648" x2="957.03553390593" y2="651.53553390593" style="stroke:#b0b;stroke-width:2;"/>
   <line x1="953.5" y1="648" x2="957.03553390593" y2="644.46446609407" style="stroke:#b0b;stroke-width:2;"/>
   <line x1="364" y1="107" x2="367.53553390593" y2="110.53553390593" style="stroke:#b0b;stroke-width:2;"/>
   <line x1="364" y1="107" x2="367.53553390593" y2="103.46446609407" style="stroke:#b0b;stroke-width:2;"/>
   <line x1="1177" y1="446" x2="1167" y2="446" style="stroke:#333;stroke-width:1;"/>
   <line x1="369" y1="107" x2="359" y2="107" style="stroke:#333;stroke-width:1;"/>
   <line x1="1167" y1="446" x2="369" y2="107" style="stroke:#333;stroke-width:1;"/>
   <line x1="1169.5" y1="446" x2="1173.0355339059" y2="449.53553390593" style="stroke:#333;stroke-width:2;"/>
   <line x1="1169.5" y1="446" x2="1173.0355339059" y2="442.46446609407" style="stroke:#333;stroke-width:2;"/>
   <line x1="364" y1="107" x2="367.53553390593" y2="110.53553390593" style="stroke:#333;stroke-width:2;"/>
   <line x1="364" y1="107" x2="367.53553390593" y2="103.46446609407" style="stroke:#333;stroke-width:2;"/>
   <line x1="937" y1="450" x2="927" y2="450" style="stroke:#bbb;stroke-width:1;"/>
   <line x1="369" y1="107" x2="359" y2="107" style="stroke:#bbb;stroke-width:1;"/>
   <line x1="927" y1="450" x2="369" y2="107" style="stroke:#bbb;stroke-width:1;"/>
   <line x1="929.5" y1="450" x2="933.03553390593" y2="453.53553390593" style="stroke:#bbb;stroke-width:2;"/>
   <line x1="929.5" y1="450" x2="933.03553390593" y2="446.46446609407" style="stroke:#bbb;stroke-width:2;"/>
   <line x1="364" y1="107" x2="367.53553390593" y2="110.53553390593" style="stroke:#bbb;stroke-width:2;"/>
   <line x1="364" y1="107" x2="367.53553390593" y2="103.46446609407" style="stroke:#bbb;stroke-width:2;"/>
   <line x1="1177" y1="728" x2="1167" y2="728" style="stroke:#0bf;stroke-width:1;"/>
   <line x1="369" y1="107" x2="359" y2="107" style="stroke:#0bf;stroke-width:1;"/>
   <line x1="1167" y1="728" x2="369" y2="107" style="stroke:#0bf;stroke-width:1;"/>
   <line x1="1169.5" y1="728" x2="1173.0355339059" y2="731.53553390593" style="stroke:#0bf;stroke-width:2;"/>
   <line x1="1169.5" y1="728" x2="1173.0355339059" y2="724.46446609407" style="stroke:#0bf;stroke-width:2;"/>
   <line x1="364" y1="107" x2="367.53553390593" y2="110.53553390593" style="stroke:#0bf;stroke-width:2;"/>
   <line x1="364" y1="107" x2="367.53553390593" y2="103.46446609407" style="stroke:#0bf;stroke-width:2;"/>
   <line x1="1424" y1="680" x2="1414" y2="680" style="stroke:#c00;stroke-width:1;"/>
   <line x1="369" y1="107" x2="359" y2="107" style="stroke:#c00;stroke-width:1;"/>
   <line x1="1414" y1="680" x2="369" y2="107" style="stroke:#c00;stroke-width:1;"/>
   <line x1="1416.5" y1="680" x2="1420.0355339059" y2="683.53553390593" style="stroke:#c00;stroke-width:2;"/>
   <line x1="1416.5" y1="680" x2="1420.0355339059" y2="676.46446609407" style="stroke:#c00;stroke-width:2;"/>
   <line x1="364" y1="107" x2="367.53553390593" y2="110.53553390593" style="stroke:#c00;stroke-width:2;"/>
   <line x1="364" y1="107" x2="367.53553390593" y2="103.46446609407" style="stroke:#c00;stroke-width:2;"/>
   <line x1="138" y1="570" x2="148" y2="570" style="stroke:#333;stroke-width:1;"/>
   <line x1="271" y1="127" x2="281" y2="127" style="stroke:#333;stroke-width:1;"/>
   <line x1="148" y1="570" x2="271" y2="127" style="stroke:#333;stroke-width:1;"/>
   <line x1="145.5" y1="570" x2="141.96446609407" y2="573.53553390593" style="stroke:#333;stroke-width:2;"/>
   <line x1="145.5" y1="570" x2="141.96446609407" y2="566.46446609407" style="stroke:#333;stroke-width:2;"/>
   <line x1="276" y1="127" x2="272.46446609407" y2="130.53553390593" style="stroke:#333;stroke-width:2;"/>
   <line x1="276" y1="127" x2="272.46446609407" y2="123.46446609407" style="stroke:#333;stroke-width:2;"/>
   <rect width="66" height="20" x="639" y="425" style="fill:#007;stroke:black;"/>
   <text width="66" height="20" x="644" y="439" style="fill:#fff;" font-family="Arial" font-size="16px"> Airforce</text>
   <rect width="66" height="20" x="639" y="445" style="fill:#aea;stroke:black;"/>
   <text width="66" height="20" x="644" y="459" style="fill:black;" font-family="Arial" font-size="16px">uid</text>
   <rect width="45" height="20" x="512" y="38" style="fill:#007;stroke:black;"/>
   <text width="45" height="20" x="517" y="52" style="fill:#fff;" font-family="Arial" font-size="16px"> Arme</text>
   <rect width="45" height="20" x="512" y="58" style="fill:#aea;stroke:black;"/>
   <text width="45" height="20" x="517" y="72" style="fill:black;" font-family="Arial" font-size="16px">uid</text>
   <rect width="87" height="20" x="787" y="42" style="fill:#007;stroke:black;"/>
   <text width="87" height="20" x="792" y="56" style="fill:#fff;" font-family="Arial" font-size="16px"> Diplomatie</text>
   <rect width="87" height="20" x="787" y="62" style="fill:#aea;stroke:black;"/>
   <text width="87" height="20" x="792" y="76" style="fill:black;" font-family="Arial" font-size="16px">uid</text>
   <rect width="64" height="20" x="47" y="370" style="fill:#007;stroke:black;"/>
   <text width="64" height="20" x="52" y="384" style="fill:#fff;" font-family="Arial" font-size="16px"> Ethnies</text>
   <rect width="64" height="20" x="47" y="390" style="fill:#aea;stroke:black;"/>
   <text width="64" height="20" x="52" y="404" style="fill:black;" font-family="Arial" font-size="16px">uid</text>
   <rect width="64" height="20" x="47" y="410" style="fill:none;stroke:black;"/>
   <text width="64" height="20" x="52" y="424" style="fill:black;" font-family="Arial" font-size="16px">pays</text>
   <rect width="61" height="20" x="76" y="127" style="fill:#007;stroke:black;"/>
   <text width="61" height="20" x="81" y="141" style="fill:#fff;" font-family="Arial" font-size="16px"> Faction</text>
   <rect width="61" height="20" x="76" y="147" style="fill:#aea;stroke:black;"/>
   <text width="61" height="20" x="81" y="161" style="fill:black;" font-family="Arial" font-size="16px">uid</text>
   <rect width="61" height="20" x="76" y="167" style="fill:none;stroke:black;"/>
   <text width="61" height="20" x="81" y="181" style="fill:black;" font-family="Arial" font-size="16px">chef</text>
   <rect width="66" height="20" x="1598" y="892" style="fill:#007;stroke:black;"/>
   <text width="66" height="20" x="1603" y="906" style="fill:#fff;" font-family="Arial" font-size="16px"> Interieur</text>
   <rect width="66" height="20" x="1598" y="912" style="fill:#aea;stroke:black;"/>
   <text width="66" height="20" x="1603" y="926" style="fill:black;" font-family="Arial" font-size="16px">uid</text>
   <rect width="78" height="20" x="281" y="77" style="fill:#007;stroke:black;"/>
   <text width="78" height="20" x="286" y="91" style="fill:#fff;" font-family="Arial" font-size="16px"> MainData</text>
   <rect width="78" height="20" x="281" y="97" style="fill:#aea;stroke:black;"/>
   <text width="78" height="20" x="286" y="111" style="fill:black;" font-family="Arial" font-size="16px">uid</text>
   <rect width="78" height="20" x="281" y="117" style="fill:none;stroke:black;"/>
   <text width="78" height="20" x="286" y="131" style="fill:black;" font-family="Arial" font-size="16px">pays</text>
   <rect width="59" height="20" x="961" y="618" style="fill:#007;stroke:black;"/>
   <text width="59" height="20" x="966" y="632" style="fill:#fff;" font-family="Arial" font-size="16px"> Marine</text>
   <rect width="59" height="20" x="961" y="638" style="fill:#aea;stroke:black;"/>
   <text width="59" height="20" x="966" y="652" style="fill:black;" font-family="Arial" font-size="16px">uid</text>
   <rect width="178" height="20" x="1177" y="416" style="fill:#007;stroke:black;"/>
   <text width="178" height="20" x="1182" y="430" style="fill:#fff;" font-family="Arial" font-size="16px"> Modificateur_satisfaction</text>
   <rect width="178" height="20" x="1177" y="436" style="fill:#aea;stroke:black;"/>
   <text width="178" height="20" x="1182" y="450" style="fill:black;" font-family="Arial" font-size="16px">uid</text>
   <rect width="80" height="20" x="937" y="420" style="fill:#007;stroke:black;"/>
   <text width="80" height="20" x="942" y="434" style="fill:#fff;" font-family="Arial" font-size="16px"> Politiques</text>
   <rect width="80" height="20" x="937" y="440" style="fill:#aea;stroke:black;"/>
   <text width="80" height="20" x="942" y="454" style="fill:black;" font-family="Arial" font-size="16px">uid</text>
   <rect width="94" height="20" x="1177" y="698" style="fill:#007;stroke:black;"/>
   <text width="94" height="20" x="1182" y="712" style="fill:#fff;" font-family="Arial" font-size="16px"> Ressources</text>
   <rect width="94" height="20" x="1177" y="718" style="fill:#aea;stroke:black;"/>
   <text width="94" height="20" x="1182" y="732" style="fill:black;" font-family="Arial" font-size="16px">uid</text>
   <rect width="73" height="20" x="1424" y="650" style="fill:#007;stroke:black;"/>
   <text width="73" height="20" x="1429" y="664" style="fill:#fff;" font-family="Arial" font-size="16px"> Techtree</text>
   <rect width="73" height="20" x="1424" y="670" style="fill:#aea;stroke:black;"/>
   <text width="73" height="20" x="1429" y="684" style="fill:black;" font-family="Arial" font-size="16px">uid</text>
   <rect width="43" height="20" x="95" y="520" style="fill:#007;stroke:black;"/>
   <text width="43" height="20" x="100" y="534" style="fill:#fff;" font-family="Arial" font-size="16px"> Ville</text>
   <rect width="43" height="20" x="95" y="540" style="fill:#aea;stroke:black;"/>
   <text width="43" height="20" x="100" y="554" style="fill:black;" font-family="Arial" font-size="16px">uid</text>
   <rect width="43" height="20" x="95" y="560" style="fill:none;stroke:black;"/>
   <text width="43" height="20" x="100" y="574" style="fill:black;" font-family="Arial" font-size="16px">pays</text>
</svg>
